<?xml version="1.0" encoding="UTF-8"?>
<svg xmlns="http://www.w3.org/2000/svg" xmlns:xlink="http://www.w3.org/1999/xlink" width="630pt" height="217pt" viewBox="0 0 630 217" version="1.1">
<g id="surface1">
<path style=" stroke:none;fill-rule:evenodd;fill:rgb(0%,0%,0%);fill-opacity:1;" d="M 8.847656 202.679688 L 11.074219 202.679688 L 11.074219 208.636719 C 11.074219 209.585938 11.101563 210.199219 11.15625 210.476563 C 11.25 210.925781 11.472656 211.289063 11.828125 211.5625 C 12.179688 211.835938 12.664063 211.972656 13.28125 211.972656 C 13.902344 211.972656 14.371094 211.84375 14.691406 211.585938 C 15.007813 211.324219 15.199219 211.011719 15.261719 210.632813 C 15.324219 210.257813 15.359375 209.636719 15.359375 208.765625 L 15.359375 202.679688 L 17.585938 202.679688 L 17.585938 208.460938 C 17.585938 209.78125 17.527344 210.71875 17.40625 211.261719 C 17.285156 211.808594 17.066406 212.269531 16.742188 212.644531 C 16.425781 213.019531 15.992188 213.316406 15.457031 213.539063 C 14.914063 213.761719 14.214844 213.875 13.347656 213.875 C 12.300781 213.875 11.507813 213.753906 10.964844 213.511719 C 10.425781 213.269531 10 212.953125 9.683594 212.5625 C 9.367188 212.175781 9.164063 211.769531 9.0625 211.34375 C 8.917969 210.714844 8.847656 209.78125 8.847656 208.550781 Z M 19.351563 210.113281 L 21.519531 209.894531 C 21.648438 210.621094 21.910156 211.152344 22.308594 211.492188 C 22.703125 211.832031 23.238281 212.003906 23.914063 212.003906 C 24.625 212.003906 25.164063 211.851563 25.523438 211.550781 C 25.882813 211.246094 26.066406 210.894531 26.066406 210.488281 C 26.066406 210.226563 25.988281 210.007813 25.839844 209.824219 C 25.6875 209.640625 25.417969 209.484375 25.042969 209.351563 C 24.78125 209.257813 24.195313 209.097656 23.273438 208.867188 C 22.089844 208.574219 21.257813 208.207031 20.777344 207.777344 C 20.101563 207.167969 19.769531 206.429688 19.769531 205.554688 C 19.769531 204.996094 19.925781 204.46875 20.242188 203.976563 C 20.558594 203.488281 21.015625 203.121094 21.609375 202.863281 C 22.210938 202.605469 22.925781 202.476563 23.769531 202.476563 C 25.144531 202.476563 26.179688 202.78125 26.875 203.394531 C 27.574219 204.007813 27.933594 204.824219 27.972656 205.839844 L 25.742188 205.917969 C 25.648438 205.351563 25.449219 204.945313 25.136719 204.695313 C 24.828125 204.449219 24.359375 204.324219 23.742188 204.324219 C 23.101563 204.324219 22.601563 204.453125 22.238281 204.722656 C 22.007813 204.894531 21.886719 205.121094 21.886719 205.40625 C 21.886719 205.667969 21.996094 205.890625 22.21875 206.074219 C 22.496094 206.3125 23.175781 206.558594 24.253906 206.816406 C 25.332031 207.066406 26.128906 207.335938 26.644531 207.605469 C 27.15625 207.878906 27.5625 208.253906 27.855469 208.722656 C 28.148438 209.199219 28.292969 209.78125 28.292969 210.476563 C 28.292969 211.105469 28.117188 211.699219 27.769531 212.246094 C 27.417969 212.796875 26.925781 213.207031 26.28125 213.472656 C 25.644531 213.742188 24.84375 213.875 23.890625 213.875 C 22.5 213.875 21.433594 213.554688 20.6875 212.914063 C 19.941406 212.273438 19.5 211.335938 19.351563 210.113281 Z M 40.089844 213.675781 L 37.691406 213.675781 L 36.742188 211.171875 L 32.332031 211.171875 L 31.417969 213.675781 L 29.0625 213.675781 L 33.332031 202.679688 L 35.683594 202.679688 Z M 36.019531 209.3125 L 34.492188 205.242188 L 33.007813 209.3125 Z M 44.972656 202.679688 L 49.023438 202.679688 C 49.9375 202.679688 50.632813 202.746094 51.109375 202.886719 C 51.753906 203.078125 52.304688 203.417969 52.765625 203.902344 C 53.226563 204.386719 53.574219 204.980469 53.8125 205.683594 C 54.050781 206.386719 54.171875 207.253906 54.171875 208.28125 C 54.171875 209.1875 54.058594 209.964844 53.835938 210.621094 C 53.5625 211.421875 53.167969 212.070313 52.660156 212.5625 C 52.277344 212.941406 51.757813 213.234375 51.101563 213.441406 C 50.613281 213.597656 49.960938 213.675781 49.144531 213.675781 L 44.972656 213.675781 Z M 47.199219 204.539063 L 47.199219 211.816406 L 48.851563 211.816406 C 49.464844 211.816406 49.914063 211.78125 50.1875 211.710938 C 50.546875 211.621094 50.84375 211.46875 51.078125 211.253906 C 51.316406 211.039063 51.511719 210.6875 51.65625 210.195313 C 51.808594 209.703125 51.882813 209.03125 51.882813 208.179688 C 51.882813 207.328125 51.808594 206.679688 51.65625 206.222656 C 51.511719 205.769531 51.300781 205.414063 51.03125 205.15625 C 50.761719 204.90625 50.421875 204.730469 50.007813 204.644531 C 49.699219 204.574219 49.09375 204.539063 48.191406 204.539063 Z M 60.65625 211.15625 L 62.757813 211.511719 C 62.492188 212.28125 62.0625 212.867188 61.484375 213.269531 C 60.898438 213.675781 60.167969 213.875 59.296875 213.875 C 57.910156 213.875 56.886719 213.421875 56.222656 212.515625 C 55.695313 211.789063 55.433594 210.871094 55.433594 209.765625 C 55.433594 208.441406 55.78125 207.40625 56.46875 206.660156 C 57.15625 205.910156 58.03125 205.535156 59.085938 205.535156 C 60.265625 205.535156 61.203125 205.925781 61.886719 206.710938 C 62.570313 207.492188 62.898438 208.695313 62.867188 210.3125 L 57.597656 210.3125 C 57.613281 210.9375 57.78125 211.421875 58.109375 211.769531 C 58.429688 212.121094 58.835938 212.292969 59.316406 212.292969 C 59.648438 212.292969 59.921875 212.203125 60.144531 212.027344 C 60.371094 211.84375 60.539063 211.554688 60.65625 211.15625 Z M 60.78125 209.019531 C 60.761719 208.410156 60.609375 207.945313 60.308594 207.628906 C 60.007813 207.304688 59.644531 207.148438 59.214844 207.148438 C 58.757813 207.148438 58.375 207.316406 58.078125 207.652344 C 57.777344 207.988281 57.632813 208.445313 57.636719 209.019531 Z M 66.78125 213.675781 L 63.570313 205.703125 L 65.78125 205.703125 L 67.28125 209.769531 L 67.714844 211.132813 C 67.832031 210.785156 67.90625 210.558594 67.933594 210.449219 C 68.003906 210.222656 68.078125 209.996094 68.160156 209.769531 L 69.683594 205.703125 L 71.847656 205.703125 L 68.679688 213.675781 Z M 77.742188 211.15625 L 79.84375 211.511719 C 79.578125 212.28125 79.148438 212.867188 78.566406 213.269531 C 77.984375 213.675781 77.253906 213.875 76.382813 213.875 C 74.996094 213.875 73.96875 213.421875 73.308594 212.515625 C 72.78125 211.789063 72.519531 210.871094 72.519531 209.765625 C 72.519531 208.441406 72.863281 207.40625 73.550781 206.660156 C 74.242188 205.910156 75.113281 205.535156 76.167969 205.535156 C 77.351563 205.535156 78.285156 205.925781 78.972656 206.710938 C 79.65625 207.492188 79.984375 208.695313 79.953125 210.3125 L 74.683594 210.3125 C 74.699219 210.9375 74.867188 211.421875 75.195313 211.769531 C 75.515625 212.121094 75.921875 212.292969 76.402344 212.292969 C 76.730469 212.292969 77.007813 212.203125 77.230469 212.027344 C 77.457031 211.84375 77.625 211.554688 77.742188 211.15625 Z M 77.863281 209.019531 C 77.847656 208.410156 77.691406 207.945313 77.390625 207.628906 C 77.09375 207.304688 76.730469 207.148438 76.300781 207.148438 C 75.84375 207.148438 75.460938 207.316406 75.164063 207.652344 C 74.863281 207.988281 74.71875 208.445313 74.722656 209.019531 Z M 81.675781 213.675781 L 81.675781 202.679688 L 83.78125 202.679688 L 83.78125 213.675781 Z M 85.453125 209.59375 C 85.453125 208.890625 85.621094 208.210938 85.96875 207.554688 C 86.316406 206.902344 86.804688 206.402344 87.4375 206.054688 C 88.066406 205.710938 88.773438 205.535156 89.554688 205.535156 C 90.757813 205.535156 91.746094 205.925781 92.515625 206.710938 C 93.285156 207.496094 93.667969 208.484375 93.667969 209.679688 C 93.667969 210.890625 93.28125 211.890625 92.503906 212.6875 C 91.726563 213.480469 90.746094 213.875 89.566406 213.875 C 88.839844 213.875 88.144531 213.710938 87.480469 213.378906 C 86.820313 213.050781 86.316406 212.5625 85.96875 211.925781 C 85.621094 211.289063 85.453125 210.507813 85.453125 209.59375 Z M 87.617188 209.707031 C 87.617188 210.496094 87.804688 211.105469 88.179688 211.523438 C 88.554688 211.945313 89.015625 212.15625 89.566406 212.15625 C 90.113281 212.15625 90.574219 211.945313 90.945313 211.523438 C 91.316406 211.105469 91.503906 210.492188 91.503906 209.6875 C 91.503906 208.910156 91.316406 208.304688 90.945313 207.890625 C 90.574219 207.464844 90.113281 207.257813 89.566406 207.257813 C 89.015625 207.257813 88.554688 207.464844 88.179688 207.890625 C 87.804688 208.304688 87.617188 208.914063 87.617188 209.707031 Z M 95.265625 205.703125 L 97.230469 205.703125 L 97.230469 206.875 C 97.488281 206.472656 97.832031 206.152344 98.265625 205.90625 C 98.699219 205.65625 99.183594 205.535156 99.714844 205.535156 C 100.636719 205.535156 101.421875 205.898438 102.070313 206.625 C 102.714844 207.351563 103.035156 208.363281 103.035156 209.65625 C 103.035156 210.992188 102.710938 212.027344 102.0625 212.765625 C 101.410156 213.507813 100.621094 213.875 99.695313 213.875 C 99.253906 213.875 98.855469 213.789063 98.5 213.613281 C 98.140625 213.4375 97.765625 213.140625 97.367188 212.710938 L 97.367188 216.703125 L 95.265625 216.703125 Z M 97.335938 209.566406 C 97.335938 210.464844 97.515625 211.128906 97.871094 211.558594 C 98.222656 211.984375 98.65625 212.199219 99.164063 212.199219 C 99.652344 212.199219 100.058594 212.003906 100.386719 211.609375 C 100.710938 211.214844 100.871094 210.570313 100.871094 209.671875 C 100.871094 208.832031 100.703125 208.210938 100.367188 207.804688 C 100.035156 207.394531 99.621094 207.195313 99.128906 207.195313 C 98.613281 207.195313 98.183594 207.394531 97.847656 207.792969 C 97.507813 208.191406 97.335938 208.78125 97.335938 209.566406 Z M 104.554688 205.703125 L 106.488281 205.703125 L 106.488281 206.792969 C 107.183594 205.953125 108.011719 205.535156 108.972656 205.535156 C 109.480469 205.535156 109.921875 205.640625 110.296875 205.851563 C 110.671875 206.0625 110.980469 206.378906 111.21875 206.800781 C 111.570313 206.378906 111.949219 206.0625 112.351563 205.851563 C 112.757813 205.640625 113.191406 205.535156 113.648438 205.535156 C 114.234375 205.535156 114.726563 205.652344 115.136719 205.890625 C 115.539063 206.128906 115.839844 206.476563 116.039063 206.9375 C 116.1875 207.277344 116.257813 207.824219 116.257813 208.585938 L 116.257813 213.675781 L 114.15625 213.675781 L 114.15625 209.128906 C 114.15625 208.335938 114.085938 207.824219 113.9375 207.597656 C 113.742188 207.300781 113.441406 207.148438 113.035156 207.148438 C 112.742188 207.148438 112.464844 207.238281 112.203125 207.417969 C 111.941406 207.597656 111.753906 207.863281 111.636719 208.207031 C 111.523438 208.554688 111.464844 209.105469 111.464844 209.855469 L 111.464844 213.675781 L 109.363281 213.675781 L 109.363281 209.3125 C 109.363281 208.539063 109.324219 208.039063 109.25 207.816406 C 109.175781 207.589844 109.058594 207.421875 108.902344 207.3125 C 108.746094 207.203125 108.53125 207.148438 108.261719 207.148438 C 107.9375 207.148438 107.644531 207.234375 107.386719 207.410156 C 107.125 207.585938 106.941406 207.835938 106.828125 208.167969 C 106.714844 208.496094 106.660156 209.042969 106.660156 209.808594 L 106.660156 213.675781 L 104.554688 213.675781 Z M 122.972656 211.15625 L 125.078125 211.511719 C 124.808594 212.28125 124.382813 212.867188 123.800781 213.269531 C 123.214844 213.675781 122.488281 213.875 121.613281 213.875 C 120.226563 213.875 119.203125 213.421875 118.539063 212.515625 C 118.011719 211.789063 117.75 210.871094 117.75 209.765625 C 117.75 208.441406 118.097656 207.40625 118.785156 206.660156 C 119.472656 205.910156 120.347656 205.535156 121.402344 205.535156 C 122.585938 205.535156 123.519531 205.925781 124.203125 206.710938 C 124.886719 207.492188 125.214844 208.695313 125.1875 210.3125 L 119.917969 210.3125 C 119.929688 210.9375 120.101563 211.421875 120.425781 211.769531 C 120.746094 212.121094 121.152344 212.292969 121.632813 212.292969 C 121.964844 212.292969 122.238281 212.203125 122.464844 212.027344 C 122.6875 211.84375 122.859375 211.554688 122.972656 211.15625 Z M 123.097656 209.019531 C 123.078125 208.410156 122.925781 207.945313 122.625 207.628906 C 122.324219 207.304688 121.960938 207.148438 121.53125 207.148438 C 121.074219 207.148438 120.695313 207.316406 120.394531 207.652344 C 120.097656 207.988281 119.949219 208.445313 119.953125 209.019531 Z M 134.15625 213.675781 L 132.050781 213.675781 L 132.050781 209.613281 C 132.050781 208.753906 132.007813 208.199219 131.917969 207.949219 C 131.824219 207.691406 131.679688 207.5 131.472656 207.359375 C 131.269531 207.214844 131.023438 207.148438 130.738281 207.148438 C 130.367188 207.148438 130.039063 207.246094 129.746094 207.449219 C 129.453125 207.644531 129.253906 207.914063 129.144531 208.242188 C 129.035156 208.574219 128.980469 209.179688 128.980469 210.074219 L 128.980469 213.675781 L 126.878906 213.675781 L 126.878906 205.703125 L 128.828125 205.703125 L 128.828125 206.875 C 129.527344 205.980469 130.402344 205.535156 131.46875 205.535156 C 131.933594 205.535156 132.359375 205.621094 132.746094 205.789063 C 133.136719 205.953125 133.425781 206.167969 133.625 206.425781 C 133.824219 206.6875 133.960938 206.980469 134.039063 207.3125 C 134.117188 207.644531 134.15625 208.113281 134.15625 208.726563 Z M 139.929688 205.703125 L 139.929688 207.378906 L 138.488281 207.378906 L 138.488281 210.605469 C 138.488281 211.261719 138.5 211.644531 138.527344 211.75 C 138.554688 211.859375 138.617188 211.949219 138.71875 212.019531 C 138.816406 212.089844 138.933594 212.125 139.070313 212.125 C 139.269531 212.125 139.550781 212.058594 139.921875 211.921875 L 140.101563 213.5625 C 139.609375 213.769531 139.058594 213.875 138.4375 213.875 C 138.058594 213.875 137.71875 213.8125 137.414063 213.683594 C 137.109375 213.554688 136.886719 213.390625 136.746094 213.1875 C 136.601563 212.980469 136.503906 212.707031 136.449219 212.359375 C 136.402344 212.113281 136.382813 211.617188 136.382813 210.867188 L 136.382813 207.378906 L 135.414063 207.378906 L 135.414063 205.703125 L 136.382813 205.703125 L 136.382813 204.121094 L 138.488281 202.878906 L 138.488281 205.703125 Z M 162.761719 202.679688 L 164.988281 202.679688 L 164.988281 208.636719 C 164.988281 209.585938 165.015625 210.199219 165.070313 210.476563 C 165.164063 210.925781 165.386719 211.289063 165.742188 211.5625 C 166.09375 211.835938 166.578125 211.972656 167.195313 211.972656 C 167.816406 211.972656 168.285156 211.84375 168.605469 211.585938 C 168.921875 211.324219 169.113281 211.011719 169.175781 210.632813 C 169.238281 210.257813 169.273438 209.636719 169.273438 208.765625 L 169.273438 202.679688 L 171.5 202.679688 L 171.5 208.460938 C 171.5 209.78125 171.441406 210.71875 171.320313 211.261719 C 171.199219 211.808594 170.980469 212.269531 170.65625 212.644531 C 170.339844 213.019531 169.90625 213.316406 169.371094 213.539063 C 168.828125 213.761719 168.128906 213.875 167.261719 213.875 C 166.214844 213.875 165.421875 213.753906 164.878906 213.511719 C 164.339844 213.269531 163.914063 212.953125 163.597656 212.5625 C 163.285156 212.175781 163.078125 211.769531 162.980469 211.34375 C 162.832031 210.714844 162.761719 209.78125 162.761719 208.550781 Z M 173.269531 210.113281 L 175.433594 209.894531 C 175.5625 210.621094 175.824219 211.152344 176.222656 211.492188 C 176.617188 211.832031 177.152344 212.003906 177.828125 212.003906 C 178.539063 212.003906 179.078125 211.851563 179.4375 211.550781 C 179.796875 211.246094 179.980469 210.894531 179.980469 210.488281 C 179.980469 210.226563 179.902344 210.007813 179.753906 209.824219 C 179.601563 209.640625 179.335938 209.484375 178.957031 209.351563 C 178.695313 209.257813 178.109375 209.097656 177.1875 208.867188 C 176.003906 208.574219 175.171875 208.207031 174.691406 207.777344 C 174.019531 207.167969 173.683594 206.429688 173.683594 205.554688 C 173.683594 204.996094 173.84375 204.46875 174.15625 203.976563 C 174.472656 203.488281 174.929688 203.121094 175.527344 202.863281 C 176.121094 202.605469 176.839844 202.476563 177.683594 202.476563 C 179.058594 202.476563 180.09375 202.78125 180.789063 203.394531 C 181.484375 204.007813 181.851563 204.824219 181.886719 205.839844 L 179.65625 205.917969 C 179.5625 205.351563 179.359375 204.945313 179.050781 204.695313 C 178.742188 204.449219 178.273438 204.324219 177.65625 204.324219 C 177.015625 204.324219 176.515625 204.453125 176.152344 204.722656 C 175.921875 204.894531 175.800781 205.121094 175.800781 205.40625 C 175.800781 205.667969 175.914063 205.890625 176.132813 206.074219 C 176.410156 206.3125 177.089844 206.558594 178.167969 206.816406 C 179.246094 207.066406 180.042969 207.335938 180.558594 207.605469 C 181.074219 207.878906 181.476563 208.253906 181.769531 208.722656 C 182.0625 209.199219 182.207031 209.78125 182.207031 210.476563 C 182.207031 211.105469 182.035156 211.699219 181.683594 212.246094 C 181.332031 212.796875 180.839844 213.207031 180.195313 213.472656 C 179.558594 213.742188 178.761719 213.875 177.804688 213.875 C 176.414063 213.875 175.347656 213.554688 174.601563 212.914063 C 173.855469 212.273438 173.414063 211.335938 173.269531 210.113281 Z M 194.003906 213.675781 L 191.605469 213.675781 L 190.65625 211.171875 L 186.246094 211.171875 L 185.328125 213.675781 L 182.976563 213.675781 L 187.246094 202.679688 L 189.597656 202.679688 Z M 189.933594 209.3125 L 188.40625 205.242188 L 186.921875 209.3125 Z M 198.886719 202.679688 L 202.9375 202.679688 C 203.851563 202.679688 204.546875 202.746094 205.023438 202.886719 C 205.667969 203.078125 206.21875 203.417969 206.679688 203.902344 C 207.140625 204.386719 207.488281 204.980469 207.726563 205.683594 C 207.964844 206.386719 208.085938 207.253906 208.085938 208.28125 C 208.085938 209.1875 207.976563 209.964844 207.75 210.621094 C 207.476563 211.421875 207.082031 212.070313 206.574219 212.5625 C 206.191406 212.941406 205.671875 213.234375 205.015625 213.441406 C 204.527344 213.597656 203.875 213.675781 203.058594 213.675781 L 198.886719 213.675781 Z M 201.113281 204.539063 L 201.113281 211.816406 L 202.765625 211.816406 C 203.378906 211.816406 203.828125 211.78125 204.101563 211.710938 C 204.460938 211.621094 204.757813 211.46875 204.992188 211.253906 C 205.230469 211.039063 205.421875 210.6875 205.570313 210.195313 C 205.726563 209.703125 205.796875 209.03125 205.796875 208.179688 C 205.796875 207.328125 205.726563 206.679688 205.570313 206.222656 C 205.421875 205.769531 205.214844 205.414063 204.945313 205.15625 C 204.675781 204.90625 204.335938 204.730469 203.921875 204.644531 C 203.613281 204.574219 203.007813 204.539063 202.105469 204.539063 Z M 214.570313 211.15625 L 216.675781 211.511719 C 216.40625 212.28125 215.976563 212.867188 215.398438 213.269531 C 214.8125 213.675781 214.082031 213.875 213.210938 213.875 C 211.824219 213.875 210.800781 213.421875 210.136719 212.515625 C 209.609375 211.789063 209.347656 210.871094 209.347656 209.765625 C 209.347656 208.441406 209.695313 207.40625 210.382813 206.660156 C 211.070313 205.910156 211.945313 205.535156 213 205.535156 C 214.179688 205.535156 215.117188 205.925781 215.800781 206.710938 C 216.484375 207.492188 216.8125 208.695313 216.78125 210.3125 L 211.511719 210.3125 C 211.527344 210.9375 211.699219 211.421875 212.023438 211.769531 C 212.34375 212.121094 212.75 212.292969 213.230469 212.292969 C 213.5625 212.292969 213.835938 212.203125 214.0625 212.027344 C 214.285156 211.84375 214.453125 211.554688 214.570313 211.15625 Z M 214.691406 209.019531 C 214.675781 208.410156 214.523438 207.945313 214.222656 207.628906 C 213.921875 207.304688 213.558594 207.148438 213.128906 207.148438 C 212.671875 207.148438 212.289063 207.316406 211.992188 207.652344 C 211.691406 207.988281 211.546875 208.445313 211.550781 209.019531 Z M 211.972656 204.675781 L 213.019531 202.433594 L 215.367188 202.433594 L 213.296875 204.675781 Z M 220.695313 213.675781 L 217.480469 205.703125 L 219.695313 205.703125 L 221.195313 209.769531 L 221.628906 211.132813 C 221.746094 210.785156 221.820313 210.558594 221.847656 210.449219 C 221.921875 210.222656 221.992188 209.996094 222.074219 209.769531 L 223.597656 205.703125 L 225.761719 205.703125 L 222.59375 213.675781 Z M 231.65625 211.15625 L 233.757813 211.511719 C 233.492188 212.28125 233.0625 212.867188 232.480469 213.269531 C 231.898438 213.675781 231.167969 213.875 230.296875 213.875 C 228.910156 213.875 227.882813 213.421875 227.222656 212.515625 C 226.695313 211.789063 226.433594 210.871094 226.433594 209.765625 C 226.433594 208.441406 226.777344 207.40625 227.464844 206.660156 C 228.15625 205.910156 229.027344 205.535156 230.085938 205.535156 C 231.265625 205.535156 232.199219 205.925781 232.886719 206.710938 C 233.570313 207.492188 233.898438 208.695313 233.867188 210.3125 L 228.597656 210.3125 C 228.613281 210.9375 228.78125 211.421875 229.109375 211.769531 C 229.429688 212.121094 229.835938 212.292969 230.316406 212.292969 C 230.644531 212.292969 230.921875 212.203125 231.144531 212.027344 C 231.371094 211.84375 231.539063 211.554688 231.65625 211.15625 Z M 231.777344 209.019531 C 231.761719 208.410156 231.605469 207.945313 231.304688 207.628906 C 231.007813 207.304688 230.644531 207.148438 230.214844 207.148438 C 229.757813 207.148438 229.375 207.316406 229.078125 207.652344 C 228.777344 207.988281 228.632813 208.445313 228.636719 209.019531 Z M 235.589844 213.675781 L 235.589844 202.679688 L 237.695313 202.679688 L 237.695313 213.675781 Z M 239.367188 209.59375 C 239.367188 208.890625 239.539063 208.210938 239.882813 207.554688 C 240.230469 206.902344 240.71875 206.402344 241.351563 206.054688 C 241.980469 205.710938 242.6875 205.535156 243.46875 205.535156 C 244.671875 205.535156 245.660156 205.925781 246.429688 206.710938 C 247.199219 207.496094 247.582031 208.484375 247.582031 209.679688 C 247.582031 210.890625 247.195313 211.890625 246.417969 212.6875 C 245.640625 213.480469 244.660156 213.875 243.480469 213.875 C 242.753906 213.875 242.058594 213.710938 241.394531 213.378906 C 240.730469 213.050781 240.230469 212.5625 239.882813 211.925781 C 239.539063 211.289063 239.367188 210.507813 239.367188 209.59375 Z M 241.53125 209.707031 C 241.53125 210.496094 241.71875 211.105469 242.09375 211.523438 C 242.46875 211.945313 242.929688 212.15625 243.480469 212.15625 C 244.027344 212.15625 244.488281 211.945313 244.859375 211.523438 C 245.230469 211.105469 245.417969 210.492188 245.417969 209.6875 C 245.417969 208.910156 245.230469 208.304688 244.859375 207.890625 C 244.488281 207.464844 244.027344 207.257813 243.480469 207.257813 C 242.929688 207.257813 242.46875 207.464844 242.09375 207.890625 C 241.71875 208.304688 241.53125 208.914063 241.53125 209.707031 Z M 249.179688 205.703125 L 251.144531 205.703125 L 251.144531 206.875 C 251.402344 206.472656 251.746094 206.152344 252.179688 205.90625 C 252.613281 205.65625 253.097656 205.535156 253.628906 205.535156 C 254.550781 205.535156 255.339844 205.898438 255.984375 206.625 C 256.628906 207.351563 256.949219 208.363281 256.949219 209.65625 C 256.949219 210.992188 256.625 212.027344 255.976563 212.765625 C 255.324219 213.507813 254.539063 213.875 253.609375 213.875 C 253.167969 213.875 252.769531 213.789063 252.414063 213.613281 C 252.054688 213.4375 251.679688 213.140625 251.28125 212.710938 L 251.28125 216.703125 L 249.179688 216.703125 Z M 251.253906 209.566406 C 251.253906 210.464844 251.429688 211.128906 251.785156 211.558594 C 252.136719 211.984375 252.570313 212.199219 253.078125 212.199219 C 253.566406 212.199219 253.972656 212.003906 254.300781 211.609375 C 254.621094 211.214844 254.785156 210.570313 254.785156 209.671875 C 254.785156 208.832031 254.621094 208.210938 254.28125 207.804688 C 253.949219 207.394531 253.535156 207.195313 253.039063 207.195313 C 252.527344 207.195313 252.101563 207.394531 251.761719 207.792969 C 251.421875 208.191406 251.253906 208.78125 251.253906 209.566406 Z M 258.5625 205.703125 L 260.527344 205.703125 L 260.527344 206.875 C 260.785156 206.472656 261.128906 206.152344 261.5625 205.90625 C 261.996094 205.65625 262.480469 205.535156 263.011719 205.535156 C 263.933594 205.535156 264.71875 205.898438 265.367188 206.625 C 266.011719 207.351563 266.332031 208.363281 266.332031 209.65625 C 266.332031 210.992188 266.007813 212.027344 265.355469 212.765625 C 264.707031 213.507813 263.921875 213.875 262.992188 213.875 C 262.550781 213.875 262.152344 213.789063 261.796875 213.613281 C 261.4375 213.4375 261.058594 213.140625 260.664063 212.710938 L 260.664063 216.703125 L 258.5625 216.703125 Z M 260.632813 209.566406 C 260.632813 210.464844 260.8125 211.128906 261.164063 211.558594 C 261.519531 211.984375 261.953125 212.199219 262.460938 212.199219 C 262.949219 212.199219 263.355469 212.003906 263.683594 211.609375 C 264.007813 211.214844 264.164063 210.570313 264.164063 209.671875 C 264.164063 208.832031 264.003906 208.210938 263.664063 207.804688 C 263.332031 207.394531 262.917969 207.195313 262.425781 207.195313 C 261.910156 207.195313 261.480469 207.394531 261.144531 207.792969 C 260.804688 208.191406 260.632813 208.78125 260.632813 209.566406 Z M 272.613281 211.15625 L 274.71875 211.511719 C 274.449219 212.28125 274.019531 212.867188 273.441406 213.269531 C 272.855469 213.675781 272.125 213.875 271.253906 213.875 C 269.867188 213.875 268.84375 213.421875 268.179688 212.515625 C 267.652344 211.789063 267.390625 210.871094 267.390625 209.765625 C 267.390625 208.441406 267.738281 207.40625 268.425781 206.660156 C 269.113281 205.910156 269.988281 205.535156 271.042969 205.535156 C 272.222656 205.535156 273.15625 205.925781 273.84375 206.710938 C 274.527344 207.492188 274.855469 208.695313 274.824219 210.3125 L 269.558594 210.3125 C 269.570313 210.9375 269.742188 211.421875 270.066406 211.769531 C 270.386719 212.121094 270.792969 212.292969 271.273438 212.292969 C 271.605469 212.292969 271.878906 212.203125 272.101563 212.027344 C 272.328125 211.84375 272.496094 211.554688 272.613281 211.15625 Z M 272.734375 209.019531 C 272.71875 208.410156 272.566406 207.945313 272.265625 207.628906 C 271.964844 207.304688 271.601563 207.148438 271.171875 207.148438 C 270.714844 207.148438 270.335938 207.316406 270.035156 207.652344 C 269.734375 207.988281 269.589844 208.445313 269.59375 209.019531 Z M 276.394531 205.703125 L 278.328125 205.703125 L 278.328125 206.792969 C 279.023438 205.953125 279.851563 205.535156 280.8125 205.535156 C 281.316406 205.535156 281.761719 205.640625 282.136719 205.851563 C 282.511719 206.0625 282.816406 206.378906 283.058594 206.800781 C 283.40625 206.378906 283.789063 206.0625 284.191406 205.851563 C 284.597656 205.640625 285.027344 205.535156 285.488281 205.535156 C 286.074219 205.535156 286.566406 205.652344 286.972656 205.890625 C 287.378906 206.128906 287.679688 206.476563 287.878906 206.9375 C 288.027344 207.277344 288.097656 207.824219 288.097656 208.585938 L 288.097656 213.675781 L 285.996094 213.675781 L 285.996094 209.128906 C 285.996094 208.335938 285.921875 207.824219 285.777344 207.597656 C 285.582031 207.300781 285.277344 207.148438 284.875 207.148438 C 284.578125 207.148438 284.300781 207.238281 284.039063 207.417969 C 283.78125 207.597656 283.59375 207.863281 283.476563 208.207031 C 283.363281 208.554688 283.304688 209.105469 283.304688 209.855469 L 283.304688 213.675781 L 281.203125 213.675781 L 281.203125 209.3125 C 281.203125 208.539063 281.164063 208.039063 281.089844 207.816406 C 281.015625 207.589844 280.898438 207.421875 280.738281 207.3125 C 280.585938 207.203125 280.371094 207.148438 280.101563 207.148438 C 279.773438 207.148438 279.484375 207.234375 279.226563 207.410156 C 278.964844 207.585938 278.78125 207.835938 278.667969 208.167969 C 278.554688 208.496094 278.496094 209.042969 278.496094 209.808594 L 278.496094 213.675781 L 276.394531 213.675781 Z M 294.8125 211.15625 L 296.914063 211.511719 C 296.648438 212.28125 296.222656 212.867188 295.640625 213.269531 C 295.054688 213.675781 294.324219 213.875 293.453125 213.875 C 292.066406 213.875 291.039063 213.421875 290.378906 212.515625 C 289.851563 211.789063 289.589844 210.871094 289.589844 209.765625 C 289.589844 208.441406 289.9375 207.40625 290.621094 206.660156 C 291.3125 205.910156 292.1875 205.535156 293.242188 205.535156 C 294.425781 205.535156 295.355469 205.925781 296.042969 206.710938 C 296.726563 207.492188 297.054688 208.695313 297.023438 210.3125 L 291.757813 210.3125 C 291.769531 210.9375 291.941406 211.421875 292.265625 211.769531 C 292.589844 212.121094 292.992188 212.292969 293.472656 212.292969 C 293.804688 212.292969 294.078125 212.203125 294.304688 212.027344 C 294.527344 211.84375 294.699219 211.554688 294.8125 211.15625 Z M 294.9375 209.019531 C 294.917969 208.410156 294.765625 207.945313 294.464844 207.628906 C 294.164063 207.304688 293.800781 207.148438 293.371094 207.148438 C 292.914063 207.148438 292.53125 207.316406 292.234375 207.652344 C 291.9375 207.988281 291.789063 208.445313 291.792969 209.019531 Z M 305.996094 213.675781 L 303.890625 213.675781 L 303.890625 209.613281 C 303.890625 208.753906 303.847656 208.199219 303.757813 207.949219 C 303.664063 207.691406 303.519531 207.5 303.3125 207.359375 C 303.109375 207.214844 302.863281 207.148438 302.574219 207.148438 C 302.207031 207.148438 301.878906 207.246094 301.585938 207.449219 C 301.289063 207.644531 301.09375 207.914063 300.984375 208.242188 C 300.875 208.574219 300.820313 209.179688 300.820313 210.074219 L 300.820313 213.675781 L 298.71875 213.675781 L 298.71875 205.703125 L 300.664063 205.703125 L 300.664063 206.875 C 301.367188 205.980469 302.242188 205.535156 303.308594 205.535156 C 303.773438 205.535156 304.199219 205.621094 304.585938 205.789063 C 304.976563 205.953125 305.265625 206.167969 305.464844 206.425781 C 305.664063 206.6875 305.800781 206.980469 305.878906 207.3125 C 305.957031 207.644531 305.996094 208.113281 305.996094 208.726563 Z M 311.769531 205.703125 L 311.769531 207.378906 L 310.328125 207.378906 L 310.328125 210.605469 C 310.328125 211.261719 310.339844 211.644531 310.367188 211.75 C 310.394531 211.859375 310.457031 211.949219 310.554688 212.019531 C 310.652344 212.089844 310.769531 212.125 310.910156 212.125 C 311.109375 212.125 311.390625 212.058594 311.761719 211.921875 L 311.9375 213.5625 C 311.449219 213.769531 310.898438 213.875 310.277344 213.875 C 309.898438 213.875 309.558594 213.8125 309.253906 213.683594 C 308.949219 213.554688 308.726563 213.390625 308.585938 213.1875 C 308.441406 212.980469 308.34375 212.707031 308.289063 212.359375 C 308.242188 212.113281 308.21875 211.617188 308.21875 210.867188 L 308.21875 207.378906 L 307.253906 207.378906 L 307.253906 205.703125 L 308.21875 205.703125 L 308.21875 204.121094 L 310.328125 202.878906 L 310.328125 205.703125 Z M 338.867188 202.679688 L 341.097656 202.679688 L 341.097656 208.636719 C 341.097656 209.585938 341.121094 210.199219 341.175781 210.476563 C 341.269531 210.925781 341.496094 211.289063 341.847656 211.5625 C 342.203125 211.835938 342.6875 211.972656 343.300781 211.972656 C 343.925781 211.972656 344.394531 211.84375 344.710938 211.585938 C 345.027344 211.324219 345.21875 211.011719 345.28125 210.632813 C 345.347656 210.257813 345.378906 209.636719 345.378906 208.765625 L 345.378906 202.679688 L 347.605469 202.679688 L 347.605469 208.460938 C 347.605469 209.78125 347.550781 210.71875 347.429688 211.261719 C 347.308594 211.808594 347.085938 212.269531 346.765625 212.644531 C 346.445313 213.019531 346.015625 213.316406 345.480469 213.539063 C 344.9375 213.761719 344.234375 213.875 343.367188 213.875 C 342.320313 213.875 341.527344 213.753906 340.988281 213.511719 C 340.449219 213.269531 340.019531 212.953125 339.703125 212.5625 C 339.390625 212.175781 339.1875 211.769531 339.085938 211.34375 C 338.9375 210.714844 338.867188 209.78125 338.867188 208.550781 Z M 349.375 210.113281 L 351.539063 209.894531 C 351.671875 210.621094 351.933594 211.152344 352.328125 211.492188 C 352.726563 211.832031 353.261719 212.003906 353.9375 212.003906 C 354.644531 212.003906 355.183594 211.851563 355.542969 211.550781 C 355.90625 211.246094 356.085938 210.894531 356.085938 210.488281 C 356.085938 210.226563 356.011719 210.007813 355.859375 209.824219 C 355.710938 209.640625 355.441406 209.484375 355.0625 209.351563 C 354.804688 209.257813 354.214844 209.097656 353.292969 208.867188 C 352.109375 208.574219 351.277344 208.207031 350.800781 207.777344 C 350.125 207.167969 349.789063 206.429688 349.789063 205.554688 C 349.789063 204.996094 349.949219 204.46875 350.265625 203.976563 C 350.578125 203.488281 351.039063 203.121094 351.632813 202.863281 C 352.230469 202.605469 352.945313 202.476563 353.789063 202.476563 C 355.164063 202.476563 356.203125 202.78125 356.894531 203.394531 C 357.59375 204.007813 357.957031 204.824219 357.992188 205.839844 L 355.765625 205.917969 C 355.671875 205.351563 355.46875 204.945313 355.15625 204.695313 C 354.847656 204.449219 354.382813 204.324219 353.765625 204.324219 C 353.121094 204.324219 352.621094 204.453125 352.261719 204.722656 C 352.027344 204.894531 351.910156 205.121094 351.910156 205.40625 C 351.910156 205.667969 352.019531 205.890625 352.238281 206.074219 C 352.519531 206.3125 353.199219 206.558594 354.277344 206.816406 C 355.351563 207.066406 356.148438 207.335938 356.664063 207.605469 C 357.179688 207.878906 357.585938 208.253906 357.878906 208.722656 C 358.167969 209.199219 358.3125 209.78125 358.3125 210.476563 C 358.3125 211.105469 358.140625 211.699219 357.789063 212.246094 C 357.4375 212.796875 356.945313 213.207031 356.304688 213.472656 C 355.664063 213.742188 354.867188 213.875 353.914063 213.875 C 352.519531 213.875 351.453125 213.554688 350.710938 212.914063 C 349.964844 212.273438 349.519531 211.335938 349.375 210.113281 Z M 370.113281 213.675781 L 367.714844 213.675781 L 366.761719 211.171875 L 362.351563 211.171875 L 361.4375 213.675781 L 359.082031 213.675781 L 363.351563 202.679688 L 365.707031 202.679688 Z M 366.039063 209.3125 L 364.511719 205.242188 L 363.027344 209.3125 Z M 374.992188 213.675781 L 374.992188 202.679688 L 383.132813 202.679688 L 383.132813 204.539063 L 377.222656 204.539063 L 377.222656 206.980469 L 382.71875 206.980469 L 382.71875 208.835938 L 377.222656 208.835938 L 377.222656 211.816406 L 383.347656 211.816406 L 383.347656 213.675781 Z M 392.472656 213.675781 L 390.367188 213.675781 L 390.367188 209.613281 C 390.367188 208.753906 390.320313 208.199219 390.230469 207.949219 C 390.140625 207.691406 389.996094 207.5 389.789063 207.359375 C 389.585938 207.214844 389.339844 207.148438 389.050781 207.148438 C 388.683594 207.148438 388.355469 207.246094 388.0625 207.449219 C 387.765625 207.644531 387.570313 207.914063 387.460938 208.242188 C 387.351563 208.574219 387.296875 209.179688 387.296875 210.074219 L 387.296875 213.675781 L 385.191406 213.675781 L 385.191406 205.703125 L 387.140625 205.703125 L 387.140625 206.875 C 387.84375 205.980469 388.71875 205.535156 389.78125 205.535156 C 390.25 205.535156 390.675781 205.621094 391.0625 205.789063 C 391.453125 205.953125 391.742188 206.167969 391.941406 206.425781 C 392.140625 206.6875 392.277344 206.980469 392.355469 207.3125 C 392.433594 207.644531 392.472656 208.113281 392.472656 208.726563 Z M 398.246094 205.703125 L 398.246094 207.378906 L 396.804688 207.378906 L 396.804688 210.605469 C 396.804688 211.261719 396.816406 211.644531 396.84375 211.75 C 396.871094 211.859375 396.933594 211.949219 397.03125 212.019531 C 397.128906 212.089844 397.246094 212.125 397.386719 212.125 C 397.585938 212.125 397.867188 212.058594 398.238281 211.921875 L 398.414063 213.5625 C 397.925781 213.769531 397.371094 213.875 396.753906 213.875 C 396.375 213.875 396.035156 213.8125 395.730469 213.683594 C 395.421875 213.554688 395.203125 213.390625 395.0625 213.1875 C 394.917969 212.980469 394.820313 212.707031 394.765625 212.359375 C 394.71875 212.113281 394.695313 211.617188 394.695313 210.867188 L 394.695313 207.378906 L 393.730469 207.378906 L 393.730469 205.703125 L 394.695313 205.703125 L 394.695313 204.121094 L 396.804688 202.878906 L 396.804688 205.703125 Z M 401.195313 213.675781 L 398.675781 205.703125 L 400.722656 205.703125 L 402.214844 210.929688 L 403.589844 205.703125 L 405.621094 205.703125 L 406.945313 210.929688 L 408.472656 205.703125 L 410.550781 205.703125 L 407.988281 213.675781 L 405.964844 213.675781 L 404.597656 208.550781 L 403.246094 213.675781 Z M 411.667969 204.628906 L 411.667969 202.679688 L 413.773438 202.679688 L 413.773438 204.628906 Z M 411.667969 213.675781 L 411.667969 205.703125 L 413.773438 205.703125 L 413.773438 213.675781 Z M 422.878906 208.070313 L 420.804688 208.4375 C 420.734375 208.027344 420.578125 207.714844 420.328125 207.507813 C 420.078125 207.300781 419.761719 207.195313 419.367188 207.195313 C 418.839844 207.195313 418.421875 207.375 418.109375 207.738281 C 417.796875 208.101563 417.640625 208.710938 417.640625 209.5625 C 417.640625 210.507813 417.796875 211.175781 418.117188 211.570313 C 418.433594 211.960938 418.859375 212.15625 419.394531 212.15625 C 419.792969 212.15625 420.121094 212.039063 420.371094 211.8125 C 420.628906 211.585938 420.808594 211.191406 420.910156 210.632813 L 422.984375 210.988281 C 422.769531 211.941406 422.359375 212.660156 421.75 213.144531 C 421.140625 213.632813 420.324219 213.875 419.296875 213.875 C 418.136719 213.875 417.203125 213.507813 416.515625 212.769531 C 415.820313 212.035156 415.476563 211.015625 415.476563 209.710938 C 415.476563 208.394531 415.824219 207.371094 416.515625 206.636719 C 417.210938 205.902344 418.148438 205.535156 419.335938 205.535156 C 420.304688 205.535156 421.074219 205.746094 421.648438 206.164063 C 422.21875 206.578125 422.628906 207.214844 422.878906 208.070313 Z M 424.402344 213.675781 L 424.402344 202.679688 L 426.507813 202.679688 L 426.507813 208.511719 L 428.972656 205.703125 L 431.566406 205.703125 L 428.847656 208.617188 L 431.765625 213.675781 L 429.492188 213.675781 L 427.480469 210.078125 L 426.507813 211.125 L 426.507813 213.675781 Z M 433.019531 213.675781 L 433.019531 202.679688 L 435.125 202.679688 L 435.125 213.675781 Z M 442.558594 213.675781 L 442.558594 212.484375 C 442.265625 212.90625 441.886719 213.246094 441.410156 213.5 C 440.9375 213.75 440.4375 213.875 439.914063 213.875 C 439.375 213.875 438.894531 213.757813 438.46875 213.519531 C 438.042969 213.289063 437.734375 212.953125 437.546875 212.527344 C 437.355469 212.101563 437.257813 211.511719 437.257813 210.757813 L 437.257813 205.703125 L 439.363281 205.703125 L 439.363281 209.375 C 439.363281 210.5 439.398438 211.1875 439.480469 211.4375 C 439.558594 211.691406 439.695313 211.894531 439.90625 212.039063 C 440.109375 212.1875 440.371094 212.261719 440.6875 212.261719 C 441.050781 212.261719 441.371094 212.164063 441.660156 211.964844 C 441.945313 211.769531 442.140625 211.523438 442.246094 211.230469 C 442.351563 210.933594 442.40625 210.21875 442.40625 209.074219 L 442.40625 205.703125 L 444.507813 205.703125 L 444.507813 213.675781 Z M 453.921875 213.675781 L 451.816406 213.675781 L 451.816406 209.613281 C 451.816406 208.753906 451.769531 208.199219 451.679688 207.949219 C 451.589844 207.691406 451.441406 207.5 451.238281 207.359375 C 451.03125 207.214844 450.789063 207.148438 450.5 207.148438 C 450.132813 207.148438 449.800781 207.246094 449.511719 207.449219 C 449.214844 207.644531 449.015625 207.914063 448.90625 208.242188 C 448.800781 208.574219 448.746094 209.179688 448.746094 210.074219 L 448.746094 213.675781 L 446.640625 213.675781 L 446.640625 205.703125 L 448.589844 205.703125 L 448.589844 206.875 C 449.289063 205.980469 450.167969 205.535156 451.230469 205.535156 C 451.695313 205.535156 452.121094 205.621094 452.511719 205.789063 C 452.902344 205.953125 453.191406 206.167969 453.390625 206.425781 C 453.589844 206.6875 453.726563 206.980469 453.804688 207.3125 C 453.882813 207.644531 453.921875 208.113281 453.921875 208.726563 Z M 455.855469 214.183594 L 458.265625 214.472656 C 458.308594 214.757813 458.398438 214.953125 458.539063 215.0625 C 458.742188 215.210938 459.058594 215.289063 459.488281 215.289063 C 460.039063 215.289063 460.449219 215.207031 460.730469 215.039063 C 460.914063 214.929688 461.050781 214.753906 461.148438 214.507813 C 461.210938 214.332031 461.246094 214.007813 461.246094 213.539063 L 461.253906 212.375 C 460.621094 213.242188 459.820313 213.675781 458.859375 213.675781 C 457.789063 213.675781 456.9375 213.222656 456.3125 212.320313 C 455.824219 211.605469 455.578125 210.714844 455.578125 209.652344 C 455.578125 208.316406 455.902344 207.296875 456.542969 206.59375 C 457.1875 205.890625 457.984375 205.535156 458.945313 205.535156 C 459.929688 205.535156 460.742188 205.96875 461.382813 206.835938 L 461.382813 205.703125 L 463.351563 205.703125 L 463.351563 212.851563 C 463.351563 213.789063 463.273438 214.496094 463.117188 214.957031 C 462.964844 215.425781 462.746094 215.789063 462.464844 216.054688 C 462.183594 216.320313 461.8125 216.527344 461.34375 216.675781 C 460.875 216.828125 460.285156 216.902344 459.570313 216.902344 C 458.21875 216.902344 457.257813 216.667969 456.695313 216.207031 C 456.128906 215.738281 455.847656 215.152344 455.847656 214.4375 C 455.847656 214.371094 455.847656 214.28125 455.855469 214.183594 Z M 457.742188 209.53125 C 457.742188 210.371094 457.90625 210.992188 458.230469 211.382813 C 458.558594 211.773438 458.964844 211.972656 459.445313 211.972656 C 459.957031 211.972656 460.390625 211.769531 460.742188 211.367188 C 461.097656 210.964844 461.277344 210.371094 461.277344 209.582031 C 461.277344 208.757813 461.105469 208.144531 460.765625 207.746094 C 460.429688 207.347656 460 207.148438 459.480469 207.148438 C 458.972656 207.148438 458.558594 207.34375 458.230469 207.738281 C 457.90625 208.128906 457.742188 208.722656 457.742188 209.53125 Z M 486.792969 202.679688 L 489.019531 202.679688 L 489.019531 208.636719 C 489.019531 209.585938 489.046875 210.199219 489.101563 210.476563 C 489.195313 210.925781 489.417969 211.289063 489.773438 211.5625 C 490.128906 211.835938 490.613281 211.972656 491.226563 211.972656 C 491.847656 211.972656 492.320313 211.84375 492.636719 211.585938 C 492.953125 211.324219 493.144531 211.011719 493.207031 210.632813 C 493.269531 210.257813 493.304688 209.636719 493.304688 208.765625 L 493.304688 202.679688 L 495.53125 202.679688 L 495.53125 208.460938 C 495.53125 209.78125 495.472656 210.71875 495.351563 211.261719 C 495.234375 211.808594 495.011719 212.269531 494.691406 212.644531 C 494.371094 213.019531 493.941406 213.316406 493.402344 213.539063 C 492.863281 213.761719 492.160156 213.875 491.292969 213.875 C 490.246094 213.875 489.453125 213.753906 488.910156 213.511719 C 488.371094 213.269531 487.945313 212.953125 487.628906 212.5625 C 487.316406 212.175781 487.109375 211.769531 487.011719 211.34375 C 486.863281 210.714844 486.792969 209.78125 486.792969 208.550781 Z M 497.300781 210.113281 L 499.464844 209.894531 C 499.59375 210.621094 499.855469 211.152344 500.253906 211.492188 C 500.648438 211.832031 501.183594 212.003906 501.859375 212.003906 C 502.570313 212.003906 503.109375 211.851563 503.46875 211.550781 C 503.828125 211.246094 504.011719 210.894531 504.011719 210.488281 C 504.011719 210.226563 503.933594 210.007813 503.785156 209.824219 C 503.632813 209.640625 503.367188 209.484375 502.988281 209.351563 C 502.730469 209.257813 502.140625 209.097656 501.21875 208.867188 C 500.035156 208.574219 499.203125 208.207031 498.722656 207.777344 C 498.050781 207.167969 497.714844 206.429688 497.714844 205.554688 C 497.714844 204.996094 497.875 204.46875 498.1875 203.976563 C 498.503906 203.488281 498.964844 203.121094 499.558594 202.863281 C 500.15625 202.605469 500.871094 202.476563 501.714844 202.476563 C 503.089844 202.476563 504.128906 202.78125 504.820313 203.394531 C 505.519531 204.007813 505.882813 204.824219 505.917969 205.839844 L 503.691406 205.917969 C 503.59375 205.351563 503.394531 204.945313 503.082031 204.695313 C 502.773438 204.449219 502.308594 204.324219 501.6875 204.324219 C 501.046875 204.324219 500.546875 204.453125 500.183594 204.722656 C 499.953125 204.894531 499.832031 205.121094 499.832031 205.40625 C 499.832031 205.667969 499.945313 205.890625 500.164063 206.074219 C 500.441406 206.3125 501.121094 206.558594 502.199219 206.816406 C 503.277344 207.066406 504.074219 207.335938 504.589844 207.605469 C 505.105469 207.878906 505.511719 208.253906 505.800781 208.722656 C 506.09375 209.199219 506.238281 209.78125 506.238281 210.476563 C 506.238281 211.105469 506.066406 211.699219 505.714844 212.246094 C 505.363281 212.796875 504.871094 213.207031 504.230469 213.472656 C 503.589844 213.742188 502.789063 213.875 501.835938 213.875 C 500.445313 213.875 499.378906 213.554688 498.632813 212.914063 C 497.886719 212.273438 497.445313 211.335938 497.300781 210.113281 Z M 518.035156 213.675781 L 515.636719 213.675781 L 514.6875 211.171875 L 510.277344 211.171875 L 509.363281 213.675781 L 507.007813 213.675781 L 511.277344 202.679688 L 513.628906 202.679688 Z M 513.964844 209.3125 L 512.4375 205.242188 L 510.953125 209.3125 Z M 522.917969 202.679688 L 526.96875 202.679688 C 527.882813 202.679688 528.578125 202.746094 529.058594 202.886719 C 529.699219 203.078125 530.253906 203.417969 530.710938 203.902344 C 531.171875 204.386719 531.519531 204.980469 531.761719 205.683594 C 531.996094 206.386719 532.117188 207.253906 532.117188 208.28125 C 532.117188 209.1875 532.007813 209.964844 531.78125 210.621094 C 531.507813 211.421875 531.113281 212.070313 530.605469 212.5625 C 530.222656 212.941406 529.703125 213.234375 529.046875 213.441406 C 528.558594 213.597656 527.90625 213.675781 527.089844 213.675781 L 522.917969 213.675781 Z M 525.144531 204.539063 L 525.144531 211.816406 L 526.796875 211.816406 C 527.414063 211.816406 527.859375 211.78125 528.132813 211.710938 C 528.492188 211.621094 528.789063 211.46875 529.023438 211.253906 C 529.261719 211.039063 529.453125 210.6875 529.605469 210.195313 C 529.757813 209.703125 529.828125 209.03125 529.828125 208.179688 C 529.828125 207.328125 529.757813 206.679688 529.605469 206.222656 C 529.453125 205.769531 529.246094 205.414063 528.976563 205.15625 C 528.707031 204.90625 528.367188 204.730469 527.953125 204.644531 C 527.644531 204.574219 527.039063 204.539063 526.136719 204.539063 Z M 538.601563 211.15625 L 540.707031 211.511719 C 540.4375 212.28125 540.011719 212.867188 539.429688 213.269531 C 538.84375 213.675781 538.113281 213.875 537.242188 213.875 C 535.855469 213.875 534.832031 213.421875 534.167969 212.515625 C 533.640625 211.789063 533.378906 210.871094 533.378906 209.765625 C 533.378906 208.441406 533.726563 207.40625 534.414063 206.660156 C 535.101563 205.910156 535.976563 205.535156 537.03125 205.535156 C 538.214844 205.535156 539.148438 205.925781 539.832031 206.710938 C 540.515625 207.492188 540.84375 208.695313 540.8125 210.3125 L 535.546875 210.3125 C 535.558594 210.9375 535.730469 211.421875 536.054688 211.769531 C 536.378906 212.121094 536.78125 212.292969 537.261719 212.292969 C 537.59375 212.292969 537.867188 212.203125 538.09375 212.027344 C 538.316406 211.84375 538.488281 211.554688 538.601563 211.15625 Z M 538.726563 209.019531 C 538.710938 208.410156 538.554688 207.945313 538.253906 207.628906 C 537.953125 207.304688 537.589844 207.148438 537.160156 207.148438 C 536.703125 207.148438 536.324219 207.316406 536.023438 207.652344 C 535.726563 207.988281 535.578125 208.445313 535.582031 209.019531 Z M 546.820313 202.679688 L 550.867188 202.679688 C 551.785156 202.679688 552.480469 202.746094 552.960938 202.886719 C 553.601563 203.078125 554.152344 203.417969 554.613281 203.902344 C 555.074219 204.386719 555.421875 204.980469 555.660156 205.683594 C 555.898438 206.386719 556.019531 207.253906 556.019531 208.28125 C 556.019531 209.1875 555.910156 209.964844 555.683594 210.621094 C 555.410156 211.421875 555.015625 212.070313 554.507813 212.5625 C 554.125 212.941406 553.605469 213.234375 552.949219 213.441406 C 552.460938 213.597656 551.808594 213.675781 550.992188 213.675781 L 546.820313 213.675781 Z M 549.046875 204.539063 L 549.046875 211.816406 L 550.699219 211.816406 C 551.3125 211.816406 551.761719 211.78125 552.035156 211.710938 C 552.394531 211.621094 552.691406 211.46875 552.925781 211.253906 C 553.164063 211.039063 553.355469 210.6875 553.503906 210.195313 C 553.660156 209.703125 553.730469 209.03125 553.730469 208.179688 C 553.730469 207.328125 553.660156 206.679688 553.503906 206.222656 C 553.355469 205.769531 553.148438 205.414063 552.878906 205.15625 C 552.609375 204.90625 552.269531 204.730469 551.855469 204.644531 C 551.546875 204.574219 550.941406 204.539063 550.039063 204.539063 Z M 562.503906 211.15625 L 564.609375 211.511719 C 564.339844 212.28125 563.910156 212.867188 563.332031 213.269531 C 562.746094 213.675781 562.015625 213.875 561.144531 213.875 C 559.757813 213.875 558.734375 213.421875 558.070313 212.515625 C 557.546875 211.789063 557.28125 210.871094 557.28125 209.765625 C 557.28125 208.441406 557.628906 207.40625 558.316406 206.660156 C 559.003906 205.910156 559.878906 205.535156 560.933594 205.535156 C 562.117188 205.535156 563.050781 205.925781 563.734375 206.710938 C 564.417969 207.492188 564.746094 208.695313 564.714844 210.3125 L 559.449219 210.3125 C 559.460938 210.9375 559.632813 211.421875 559.957031 211.769531 C 560.277344 212.121094 560.683594 212.292969 561.164063 212.292969 C 561.496094 212.292969 561.769531 212.203125 561.992188 212.027344 C 562.21875 211.84375 562.390625 211.554688 562.503906 211.15625 Z M 562.628906 209.019531 C 562.609375 208.410156 562.453125 207.945313 562.15625 207.628906 C 561.855469 207.304688 561.492188 207.148438 561.0625 207.148438 C 560.605469 207.148438 560.226563 207.316406 559.925781 207.652344 C 559.628906 207.988281 559.480469 208.445313 559.484375 209.019531 Z M 565.6875 211.433594 L 567.804688 211.109375 C 567.894531 211.519531 568.078125 211.828125 568.355469 212.039063 C 568.628906 212.25 569.015625 212.355469 569.507813 212.355469 C 570.054688 212.355469 570.464844 212.253906 570.738281 212.054688 C 570.921875 211.914063 571.015625 211.726563 571.015625 211.492188 C 571.015625 211.332031 570.964844 211.199219 570.863281 211.09375 C 570.761719 210.992188 570.523438 210.898438 570.160156 210.8125 C 568.457031 210.4375 567.378906 210.09375 566.925781 209.785156 C 566.289063 209.351563 565.976563 208.753906 565.976563 207.988281 C 565.976563 207.292969 566.253906 206.714844 566.796875 206.242188 C 567.34375 205.769531 568.1875 205.535156 569.332031 205.535156 C 570.421875 205.535156 571.230469 205.714844 571.761719 206.070313 C 572.292969 206.429688 572.660156 206.957031 572.859375 207.65625 L 570.878906 208.023438 C 570.792969 207.710938 570.628906 207.472656 570.390625 207.304688 C 570.152344 207.136719 569.8125 207.054688 569.367188 207.054688 C 568.8125 207.054688 568.410156 207.132813 568.171875 207.289063 C 568.007813 207.398438 567.925781 207.542969 567.925781 207.714844 C 567.925781 207.867188 567.996094 207.996094 568.136719 208.101563 C 568.332031 208.242188 568.988281 208.4375 570.113281 208.695313 C 571.242188 208.949219 572.027344 209.261719 572.472656 209.632813 C 572.914063 210.007813 573.136719 210.53125 573.136719 211.203125 C 573.136719 211.933594 572.828125 212.5625 572.21875 213.085938 C 571.609375 213.613281 570.707031 213.875 569.507813 213.875 C 568.421875 213.875 567.5625 213.65625 566.925781 213.21875 C 566.296875 212.78125 565.878906 212.1875 565.6875 211.433594 Z M 576.546875 208.164063 L 574.644531 207.824219 C 574.859375 207.042969 575.230469 206.46875 575.753906 206.097656 C 576.28125 205.722656 577.058594 205.535156 578.09375 205.535156 C 579.03125 205.535156 579.734375 205.644531 580.195313 205.867188 C 580.652344 206.089844 580.980469 206.371094 581.164063 206.714844 C 581.351563 207.058594 581.449219 207.6875 581.449219 208.601563 L 581.417969 211.0625 C 581.417969 211.757813 581.449219 212.277344 581.515625 212.609375 C 581.582031 212.941406 581.710938 213.296875 581.894531 213.675781 L 579.804688 213.675781 C 579.75 213.539063 579.679688 213.332031 579.601563 213.0625 C 579.566406 212.9375 579.542969 212.855469 579.527344 212.816406 C 579.167969 213.167969 578.785156 213.433594 578.375 213.609375 C 577.964844 213.785156 577.53125 213.875 577.066406 213.875 C 576.25 213.875 575.605469 213.652344 575.136719 213.207031 C 574.664063 212.765625 574.429688 212.199219 574.429688 211.519531 C 574.429688 211.074219 574.535156 210.667969 574.75 210.316406 C 574.964844 209.964844 575.265625 209.695313 575.65625 209.507813 C 576.039063 209.320313 576.597656 209.15625 577.328125 209.015625 C 578.3125 208.832031 578.996094 208.65625 579.375 208.5 L 579.375 208.289063 C 579.375 207.878906 579.273438 207.585938 579.074219 207.410156 C 578.871094 207.234375 578.492188 207.148438 577.9375 207.148438 C 577.558594 207.148438 577.269531 207.222656 577.058594 207.371094 C 576.847656 207.519531 576.679688 207.785156 576.546875 208.164063 Z M 579.375 209.867188 C 579.105469 209.957031 578.679688 210.0625 578.089844 210.1875 C 577.507813 210.3125 577.121094 210.4375 576.945313 210.554688 C 576.671875 210.753906 576.53125 210.996094 576.53125 211.296875 C 576.53125 211.59375 576.644531 211.847656 576.863281 212.0625 C 577.082031 212.277344 577.363281 212.386719 577.703125 212.386719 C 578.078125 212.386719 578.445313 212.257813 578.789063 212.011719 C 579.042969 211.820313 579.214844 211.589844 579.292969 211.3125 C 579.347656 211.132813 579.375 210.792969 579.375 210.289063 Z M 585.535156 213.675781 L 583.429688 213.675781 L 583.429688 205.703125 L 585.382813 205.703125 L 585.382813 206.835938 C 585.714844 206.300781 586.019531 205.949219 586.289063 205.78125 C 586.554688 205.617188 586.859375 205.535156 587.203125 205.535156 C 587.683594 205.535156 588.144531 205.667969 588.59375 205.929688 L 587.9375 207.769531 C 587.585938 207.539063 587.253906 207.425781 586.949219 207.425781 C 586.652344 207.425781 586.402344 207.507813 586.195313 207.667969 C 585.992188 207.832031 585.828125 208.125 585.710938 208.550781 C 585.59375 208.972656 585.535156 209.863281 585.535156 211.21875 Z M 591.511719 213.675781 L 589.40625 213.675781 L 589.40625 205.703125 L 591.359375 205.703125 L 591.359375 206.835938 C 591.695313 206.300781 591.996094 205.949219 592.265625 205.78125 C 592.53125 205.617188 592.839844 205.535156 593.179688 205.535156 C 593.660156 205.535156 594.121094 205.667969 594.570313 205.929688 L 593.914063 207.769531 C 593.5625 207.539063 593.230469 207.425781 592.925781 207.425781 C 592.628906 207.425781 592.378906 207.507813 592.175781 207.667969 C 591.96875 207.832031 591.804688 208.125 591.6875 208.550781 C 591.570313 208.972656 591.511719 209.863281 591.511719 211.21875 Z M 594.984375 209.59375 C 594.984375 208.890625 595.15625 208.210938 595.503906 207.554688 C 595.847656 206.902344 596.339844 206.402344 596.972656 206.054688 C 597.601563 205.710938 598.304688 205.535156 599.085938 205.535156 C 600.292969 205.535156 601.277344 205.925781 602.050781 206.710938 C 602.820313 207.496094 603.203125 208.484375 603.203125 209.679688 C 603.203125 210.890625 602.8125 211.890625 602.039063 212.6875 C 601.261719 213.480469 600.28125 213.875 599.101563 213.875 C 598.371094 213.875 597.675781 213.710938 597.015625 213.378906 C 596.351563 213.050781 595.847656 212.5625 595.503906 211.925781 C 595.15625 211.289063 594.984375 210.507813 594.984375 209.59375 Z M 597.152344 209.707031 C 597.152344 210.496094 597.339844 211.105469 597.714844 211.523438 C 598.089844 211.945313 598.550781 212.15625 599.101563 212.15625 C 599.648438 212.15625 600.109375 211.945313 600.480469 211.523438 C 600.851563 211.105469 601.039063 210.492188 601.039063 209.6875 C 601.039063 208.910156 600.851563 208.304688 600.480469 207.890625 C 600.109375 207.464844 599.648438 207.257813 599.101563 207.257813 C 598.550781 207.257813 598.089844 207.464844 597.714844 207.890625 C 597.339844 208.304688 597.152344 208.914063 597.152344 209.707031 Z M 604.859375 213.675781 L 604.859375 202.679688 L 606.964844 202.679688 L 606.964844 213.675781 Z M 609.128906 213.675781 L 609.128906 202.679688 L 611.234375 202.679688 L 611.234375 213.675781 Z M 612.90625 209.59375 C 612.90625 208.890625 613.074219 208.210938 613.421875 207.554688 C 613.769531 206.902344 614.257813 206.402344 614.890625 206.054688 C 615.519531 205.710938 616.222656 205.535156 617.007813 205.535156 C 618.210938 205.535156 619.195313 205.925781 619.96875 206.710938 C 620.738281 207.496094 621.121094 208.484375 621.121094 209.679688 C 621.121094 210.890625 620.730469 211.890625 619.957031 212.6875 C 619.179688 213.480469 618.199219 213.875 617.019531 213.875 C 616.289063 213.875 615.59375 213.710938 614.933594 213.378906 C 614.269531 213.050781 613.769531 212.5625 613.421875 211.925781 C 613.074219 211.289063 612.90625 210.507813 612.90625 209.59375 Z M 615.070313 209.707031 C 615.070313 210.496094 615.257813 211.105469 615.632813 211.523438 C 616.007813 211.945313 616.46875 212.15625 617.019531 212.15625 C 617.566406 212.15625 618.027344 211.945313 618.398438 211.523438 C 618.769531 211.105469 618.957031 210.492188 618.957031 209.6875 C 618.957031 208.910156 618.769531 208.304688 618.398438 207.890625 C 618.027344 207.464844 617.566406 207.257813 617.019531 207.257813 C 616.46875 207.257813 616.007813 207.464844 615.632813 207.890625 C 615.257813 208.304688 615.070313 208.914063 615.070313 209.707031 Z M 152.554688 205.976563 C 154.132813 205.976563 155.40625 207.238281 155.40625 208.796875 C 155.40625 210.355469 154.132813 211.613281 152.554688 211.613281 C 150.980469 211.613281 149.703125 210.355469 149.703125 208.796875 C 149.703125 207.238281 150.980469 205.976563 152.554688 205.976563 Z M 325.597656 205.976563 C 327.171875 205.976563 328.449219 207.238281 328.449219 208.796875 C 328.449219 210.355469 327.171875 211.613281 325.597656 211.613281 C 324.019531 211.613281 322.742188 210.355469 322.742188 208.796875 C 322.742188 207.238281 324.019531 205.976563 325.597656 205.976563 Z M 474.90625 205.976563 C 476.484375 205.976563 477.757813 207.238281 477.757813 208.796875 C 477.757813 210.355469 476.484375 211.613281 474.90625 211.613281 C 473.332031 211.613281 472.054688 210.355469 472.054688 208.796875 C 472.054688 207.238281 473.332031 205.976563 474.90625 205.976563 "/>
<path style=" stroke:none;fill-rule:evenodd;fill:rgb(99.609375%,99.609375%,99.609375%);fill-opacity:1;" d="M 18.910156 1.632813 C 9.574219 1.632813 1.753906 9.113281 1.753906 18.53125 L 1.753906 176.925781 C 1.753906 186.347656 9.574219 193.828125 18.910156 193.828125 L 30.507813 193.828125 C 220.15625 193.828125 409.808594 193.828125 599.460938 193.828125 L 611.058594 193.828125 C 620.394531 193.828125 628.214844 186.347656 628.214844 176.925781 L 628.214844 58.167969 C 628.214844 56.15625 627.488281 54.425781 626.046875 53.023438 L 575.492188 3.679688 C 574.097656 2.316406 572.417969 1.632813 570.46875 1.632813 L 18.910156 1.632813 "/>
<path style="fill:none;stroke-width:21.2598;stroke-linecap:butt;stroke-linejoin:miter;stroke:rgb(0%,0%,0%);stroke-opacity:1;stroke-miterlimit:2.61313;" d="M 189.101563 2153.671875 C 95.742188 2153.671875 17.539063 2078.867188 17.539063 1984.6875 L 17.539063 400.742188 C 17.539063 306.523438 95.742188 231.71875 189.101563 231.71875 L 305.078125 231.71875 C 2201.5625 231.71875 4098.085938 231.71875 5994.609375 231.71875 L 6110.585938 231.71875 C 6203.945313 231.71875 6282.148438 306.523438 6282.148438 400.742188 L 6282.148438 1588.320313 C 6282.148438 1608.4375 6274.882813 1625.742188 6260.46875 1639.765625 L 5754.921875 2133.203125 C 5740.976563 2146.835938 5724.179688 2153.671875 5704.6875 2153.671875 Z M 189.101563 2153.671875 " transform="matrix(0.1,0,0,-0.1,0,217)"/>
<path style=" stroke:none;fill-rule:evenodd;fill:rgb(90.234375%,12.939453%,16.088867%);fill-opacity:1;" d="M 31.257813 8.824219 L 18.921875 8.824219 C 13.4375 8.824219 8.953125 13.195313 8.953125 18.535156 L 8.953125 176.925781 C 8.953125 182.265625 13.4375 186.632813 18.921875 186.632813 L 30.515625 186.632813 C 220.195313 186.632813 409.878906 186.632813 599.5625 186.632813 L 611.050781 186.632813 C 616.53125 186.632813 621.015625 182.265625 621.015625 176.925781 L 621.015625 62.355469 L 576.121094 62.269531 C 570.636719 62.257813 566.152344 57.898438 566.152344 52.5625 L 566.152344 8.824219 C 387.855469 8.824219 209.554688 8.824219 31.257813 8.824219 Z M 573.496094 11.796875 L 573.496094 52.5625 C 573.496094 53.960938 574.699219 55.113281 576.132813 55.121094 L 617.964844 55.199219 L 573.496094 11.796875 "/>
<path style=" stroke:none;fill-rule:evenodd;fill:rgb(99.609375%,99.609375%,99.609375%);fill-opacity:1;" d="M 35.597656 120.980469 L 35.597656 124.742188 L 243.03125 124.742188 L 242.996094 124.699219 L 242.769531 124.417969 L 242.546875 124.136719 L 242.316406 123.855469 L 242.09375 123.574219 L 241.867188 123.292969 L 241.636719 123.011719 L 241.410156 122.730469 L 241.183594 122.445313 L 240.957031 122.167969 L 240.730469 121.882813 L 240.503906 121.605469 L 240.277344 121.320313 L 240.046875 121.039063 L 239.996094 120.980469 Z M 489.46875 121.09375 L 276.597656 121.09375 L 279.601563 124.859375 L 594.375 124.859375 L 591.371094 121.09375 Z M 284.78125 56.964844 L 284.78125 99.703125 L 292.511719 99.703125 C 299.265625 99.703125 304.550781 97.730469 308.410156 93.78125 C 312.25 89.835938 314.175781 84.457031 314.175781 77.652344 C 314.175781 71.230469 312.265625 66.175781 308.460938 62.503906 C 304.640625 58.808594 299.300781 56.964844 292.410156 56.964844 Z M 513.375 143.691406 L 511.160156 137.902344 L 509.007813 143.691406 Z M 570.007813 140.871094 L 572.394531 140.871094 C 573.9375 140.871094 574.898438 140.808594 575.285156 140.675781 C 575.667969 140.550781 575.972656 140.328125 576.1875 140.015625 C 576.40625 139.703125 576.515625 139.308594 576.515625 138.839844 C 576.515625 138.308594 576.371094 137.886719 576.082031 137.5625 C 575.800781 137.238281 575.394531 137.035156 574.875 136.949219 C 574.605469 136.914063 573.828125 136.894531 572.519531 136.894531 L 570.007813 136.894531 Z M 324.960938 136.894531 L 324.960938 147.253906 L 327.351563 147.253906 C 328.25 147.253906 328.894531 147.203125 329.292969 147.105469 C 329.816406 146.976563 330.246094 146.757813 330.589844 146.449219 C 330.933594 146.148438 331.210938 145.644531 331.429688 144.945313 C 331.644531 144.246094 331.757813 143.289063 331.757813 142.078125 C 331.757813 140.867188 331.644531 139.941406 331.429688 139.292969 C 331.210938 138.648438 330.90625 138.144531 330.515625 137.777344 C 330.128906 137.417969 329.632813 137.167969 329.035156 137.042969 C 328.589844 136.949219 327.707031 136.894531 326.398438 136.894531 Z M 175.894531 141.910156 C 175.894531 143.742188 176.300781 145.105469 177.097656 146.042969 C 177.914063 146.980469 178.945313 147.449219 180.171875 147.449219 C 181.417969 147.449219 182.425781 146.980469 183.242188 146.066406 C 184.039063 145.128906 184.425781 143.742188 184.425781 141.867188 C 184.425781 140.035156 184.039063 138.671875 183.265625 137.777344 C 182.492188 136.863281 181.460938 136.417969 180.171875 136.417969 C 178.902344 136.417969 177.851563 136.863281 177.074219 137.777344 C 176.28125 138.695313 175.894531 140.082031 175.894531 141.910156 Z M 222.003906 143.585938 L 219.875 137.667969 L 217.789063 143.585938 Z M 314.109375 143.691406 L 311.890625 137.902344 L 309.734375 143.691406 Z M 452.738281 143.691406 L 450.519531 137.902344 L 448.367188 143.691406 Z M 38.714844 136.640625 L 38.714844 141.195313 L 40.410156 141.195313 C 41.636719 141.195313 42.453125 141.105469 42.863281 140.953125 C 43.273438 140.773438 43.59375 140.503906 43.832031 140.148438 C 44.066406 139.789063 44.171875 139.386719 44.171875 138.898438 C 44.171875 138.316406 44 137.84375 43.679688 137.46875 C 43.355469 137.089844 42.949219 136.839844 42.433594 136.75 C 42.070313 136.683594 41.339844 136.640625 40.21875 136.640625 Z M 57.179688 140.707031 L 59.480469 140.707031 C 60.964844 140.707031 61.910156 140.636719 62.273438 140.503906 C 62.640625 140.371094 62.941406 140.148438 63.136719 139.835938 C 63.351563 139.496094 63.457031 139.097656 63.457031 138.625 C 63.457031 138.09375 63.328125 137.644531 63.046875 137.3125 C 62.769531 137 62.382813 136.773438 61.867188 136.683594 C 61.628906 136.664063 60.855469 136.640625 59.609375 136.640625 L 57.179688 136.640625 Z M 76.273438 141.910156 C 76.273438 143.742188 76.683594 145.105469 77.476563 146.042969 C 78.296875 146.980469 79.328125 147.449219 80.550781 147.449219 C 81.800781 147.449219 82.808594 146.980469 83.625 146.066406 C 84.421875 145.128906 84.804688 143.742188 84.804688 141.867188 C 84.804688 140.035156 84.421875 138.671875 83.644531 137.777344 C 82.871094 136.863281 81.839844 136.417969 80.550781 136.417969 C 79.28125 136.417969 78.230469 136.863281 77.457031 137.777344 C 76.660156 138.695313 76.273438 140.082031 76.273438 141.910156 Z M 498.410156 85.371094 L 490.980469 62.710938 C 490.4375 61.007813 490.042969 58.984375 489.808594 56.644531 L 489.433594 56.644531 C 489.265625 58.617188 488.871094 60.574219 488.230469 62.519531 L 480.699219 85.371094 Z M 585.335938 112.03125 L 534.75 112.03125 L 534.75 44.605469 L 550.355469 44.605469 L 550.355469 99.703125 L 575.441406 99.703125 Z M 393.890625 149.898438 L 388.183594 134.25 L 391.675781 134.25 L 395.726563 145.832031 L 399.613281 134.25 L 403.039063 134.25 L 397.371094 149.898438 Z M 404.671875 149.898438 L 404.671875 134.25 L 416.472656 134.25 L 416.472656 136.894531 L 407.894531 136.894531 L 407.894531 140.367188 L 415.875 140.367188 L 415.875 143.015625 L 407.894531 143.015625 L 407.894531 147.253906 L 416.785156 147.253906 L 416.785156 149.898438 Z M 425.675781 149.898438 L 425.675781 134.25 L 430.507813 134.25 L 433.371094 144.921875 L 436.195313 134.25 L 441.042969 134.25 L 441.042969 149.898438 L 438.058594 149.898438 L 438.046875 137.578125 L 434.902344 149.898438 L 431.800781 149.898438 L 428.667969 137.578125 L 428.65625 149.898438 Z M 458.636719 149.898438 L 455.164063 149.898438 L 453.78125 146.335938 L 447.386719 146.335938 L 446.0625 149.898438 L 442.644531 149.898438 L 448.839844 134.25 L 452.25 134.25 Z M 460.359375 149.898438 L 460.359375 134.25 L 463.488281 134.25 L 470.046875 144.734375 L 470.046875 134.25 L 473.035156 134.25 L 473.035156 149.898438 L 469.804688 149.898438 L 463.34375 139.613281 L 463.34375 149.898438 Z M 476.445313 134.25 L 479.675781 134.25 L 479.675781 142.730469 C 479.675781 144.078125 479.71875 144.949219 479.792969 145.34375 C 479.933594 145.988281 480.253906 146.503906 480.769531 146.890625 C 481.285156 147.28125 481.988281 147.472656 482.878906 147.472656 C 483.777344 147.472656 484.460938 147.289063 484.921875 146.921875 C 485.386719 146.554688 485.660156 146.105469 485.75 145.570313 C 485.84375 145.035156 485.890625 144.148438 485.890625 142.910156 L 485.890625 134.25 L 489.121094 134.25 L 489.121094 142.476563 C 489.121094 144.359375 489.039063 145.6875 488.859375 146.460938 C 488.6875 147.238281 488.367188 147.894531 487.898438 148.429688 C 487.433594 148.964844 486.8125 149.386719 486.035156 149.703125 C 485.25 150.023438 484.230469 150.183594 482.972656 150.183594 C 481.453125 150.183594 480.304688 150.011719 479.519531 149.667969 C 478.738281 149.320313 478.117188 148.871094 477.660156 148.320313 C 477.207031 147.765625 476.90625 147.1875 476.761719 146.582031 C 476.550781 145.683594 476.445313 144.359375 476.445313 142.605469 Z M 492.535156 149.898438 L 492.535156 134.25 L 503.496094 134.25 L 503.496094 136.894531 L 495.761719 136.894531 L 495.761719 140.609375 L 502.449219 140.609375 L 502.449219 143.253906 L 495.761719 143.253906 L 495.761719 149.898438 Z M 519.277344 149.898438 L 515.800781 149.898438 L 514.421875 146.335938 L 508.027344 146.335938 L 506.699219 149.898438 L 503.285156 149.898438 L 509.476563 134.25 L 512.890625 134.25 Z M 531.199219 144.128906 L 534.320313 145.070313 C 533.839844 146.792969 533.042969 148.070313 531.929688 148.90625 C 530.816406 149.742188 529.40625 150.160156 527.691406 150.160156 C 525.574219 150.160156 523.832031 149.453125 522.464844 148.03125 C 521.101563 146.605469 520.421875 144.667969 520.421875 142.203125 C 520.421875 139.597656 521.109375 137.574219 522.476563 136.128906 C 523.847656 134.6875 525.652344 133.964844 527.886719 133.964844 C 529.839844 133.964844 531.425781 134.53125 532.640625 135.667969 C 533.371094 136.339844 533.910156 137.296875 534.277344 138.554688 L 531.089844 139.300781 C 530.898438 138.488281 530.507813 137.847656 529.910156 137.378906 C 529.308594 136.910156 528.582031 136.675781 527.726563 136.675781 C 526.539063 136.675781 525.578125 137.09375 524.847656 137.925781 C 524.105469 138.757813 523.738281 140.105469 523.738281 141.96875 C 523.738281 143.941406 524.101563 145.351563 524.824219 146.191406 C 525.550781 147.03125 526.496094 147.449219 527.660156 147.449219 C 528.515625 147.449219 529.253906 147.1875 529.871094 146.648438 C 530.488281 146.113281 530.933594 145.273438 531.199219 144.128906 Z M 540.671875 149.898438 L 540.671875 136.894531 L 535.953125 136.894531 L 535.953125 134.25 L 548.601563 134.25 L 548.601563 136.894531 L 543.902344 136.894531 L 543.902344 149.898438 Z M 550.691406 134.25 L 553.921875 134.25 L 553.921875 142.730469 C 553.921875 144.078125 553.964844 144.949219 554.039063 145.34375 C 554.179688 145.988281 554.5 146.503906 555.015625 146.890625 C 555.53125 147.28125 556.230469 147.472656 557.121094 147.472656 C 558.023438 147.472656 558.707031 147.289063 559.167969 146.921875 C 559.628906 146.554688 559.902344 146.105469 559.996094 145.570313 C 560.089844 145.035156 560.136719 144.148438 560.136719 142.910156 L 560.136719 134.25 L 563.367188 134.25 L 563.367188 142.476563 C 563.367188 144.359375 563.285156 145.6875 563.105469 146.460938 C 562.929688 147.238281 562.613281 147.894531 562.144531 148.429688 C 561.683594 148.964844 561.058594 149.386719 560.277344 149.703125 C 559.496094 150.023438 558.476563 150.183594 557.21875 150.183594 C 555.699219 150.183594 554.550781 150.011719 553.765625 149.667969 C 552.984375 149.320313 552.363281 148.871094 551.910156 148.320313 C 551.453125 147.765625 551.152344 147.1875 551.007813 146.582031 C 550.796875 145.683594 550.691406 144.359375 550.691406 142.605469 Z M 566.78125 149.898438 L 566.78125 134.25 L 573.5625 134.25 C 575.269531 134.25 576.507813 134.394531 577.277344 134.671875 C 578.054688 134.953125 578.671875 135.453125 579.136719 136.171875 C 579.597656 136.890625 579.832031 137.710938 579.832031 138.636719 C 579.832031 139.8125 579.484375 140.78125 578.78125 141.546875 C 578.078125 142.3125 577.035156 142.792969 575.640625 142.992188 C 576.332031 143.390625 576.902344 143.828125 577.351563 144.304688 C 577.804688 144.78125 578.417969 145.628906 579.179688 146.84375 L 581.121094 149.898438 L 577.277344 149.898438 L 574.96875 146.480469 C 574.140625 145.269531 573.566406 144.5 573.265625 144.1875 C 572.960938 143.871094 572.636719 143.65625 572.292969 143.539063 C 571.949219 143.421875 571.40625 143.363281 570.664063 143.363281 L 570.007813 143.363281 L 570.007813 149.898438 Z M 582.867188 149.898438 L 582.867188 134.25 L 594.671875 134.25 L 594.671875 136.894531 L 586.097656 136.894531 L 586.097656 140.367188 L 594.070313 140.367188 L 594.070313 143.015625 L 586.097656 143.015625 L 586.097656 147.253906 L 594.984375 147.253906 L 594.984375 149.898438 Z M 448.742188 109.636719 C 443.699219 112.011719 437.09375 113.203125 428.953125 113.203125 C 418.34375 113.203125 409.992188 110.171875 403.90625 104.085938 C 397.8125 98.003906 394.78125 89.898438 394.78125 79.769531 C 394.78125 68.984375 398.191406 60.238281 405.027344 53.527344 C 411.867188 46.820313 420.746094 43.464844 431.652344 43.464844 C 438.414063 43.464844 444.109375 44.300781 448.742188 45.96875 L 448.742188 60.589844 C 444.109375 57.894531 438.839844 56.546875 432.910156 56.546875 C 426.417969 56.546875 421.164063 58.539063 417.175781 62.519531 C 413.1875 66.496094 411.195313 71.890625 411.195313 78.695313 C 411.195313 85.210938 413.070313 90.410156 416.847656 94.28125 C 420.601563 98.148438 425.675781 100.089844 432.050781 100.089844 C 438.132813 100.089844 443.699219 98.644531 448.742188 95.757813 Z M 523.902344 112.03125 L 506.910156 112.03125 L 501.988281 97.023438 L 477.371094 97.023438 L 472.496094 112.03125 L 455.589844 112.03125 L 480.796875 44.605469 L 499.285156 44.605469 Z M 320.011719 149.898438 L 316.53125 149.898438 L 315.15625 146.335938 L 308.757813 146.335938 L 307.433594 149.898438 L 304.015625 149.898438 L 310.207031 134.25 L 313.625 134.25 Z M 321.734375 134.25 L 327.605469 134.25 C 328.929688 134.25 329.9375 134.347656 330.632813 134.550781 C 331.566406 134.816406 332.371094 135.296875 333.03125 135.992188 C 333.699219 136.679688 334.203125 137.523438 334.554688 138.527344 C 334.902344 139.527344 335.074219 140.761719 335.074219 142.222656 C 335.074219 143.511719 334.910156 144.621094 334.585938 145.554688 C 334.183594 146.695313 333.617188 147.617188 332.878906 148.320313 C 332.320313 148.851563 331.566406 149.269531 330.625 149.570313 C 329.914063 149.789063 328.96875 149.898438 327.777344 149.898438 L 321.734375 149.898438 Z M 337.816406 149.898438 L 337.816406 134.25 L 341.046875 134.25 L 341.046875 140.414063 L 347.328125 140.414063 L 347.328125 134.25 L 350.558594 134.25 L 350.558594 149.898438 L 347.328125 149.898438 L 347.328125 143.058594 L 341.046875 143.058594 L 341.046875 149.898438 Z M 353.902344 149.898438 L 353.902344 134.25 L 365.710938 134.25 L 365.710938 136.894531 L 357.136719 136.894531 L 357.136719 140.367188 L 365.109375 140.367188 L 365.109375 143.015625 L 357.136719 143.015625 L 357.136719 147.253906 L 366.023438 147.253906 L 366.023438 149.898438 Z M 367.917969 144.828125 L 371.054688 144.523438 C 371.246094 145.554688 371.625 146.308594 372.199219 146.792969 C 372.777344 147.277344 373.554688 147.515625 374.527344 147.515625 C 375.5625 147.515625 376.339844 147.300781 376.863281 146.871094 C 377.386719 146.441406 377.648438 145.9375 377.648438 145.359375 C 377.648438 144.992188 377.539063 144.679688 377.320313 144.414063 C 377.101563 144.15625 376.714844 143.929688 376.167969 143.746094 C 375.792969 143.613281 374.9375 143.386719 373.601563 143.058594 C 371.882813 142.636719 370.675781 142.117188 369.980469 141.503906 C 369.003906 140.640625 368.519531 139.585938 368.519531 138.34375 C 368.519531 137.546875 368.746094 136.796875 369.207031 136.101563 C 369.667969 135.40625 370.324219 134.875 371.191406 134.511719 C 372.058594 134.148438 373.097656 133.964844 374.320313 133.964844 C 376.3125 133.964844 377.816406 134.402344 378.824219 135.269531 C 379.835938 136.140625 380.359375 137.296875 380.414063 138.75 L 377.183594 138.863281 C 377.046875 138.054688 376.753906 137.472656 376.304688 137.121094 C 375.855469 136.765625 375.175781 136.589844 374.28125 136.589844 C 373.351563 136.589844 372.625 136.777344 372.101563 137.15625 C 371.761719 137.402344 371.59375 137.722656 371.59375 138.132813 C 371.59375 138.503906 371.753906 138.824219 372.070313 139.082031 C 372.476563 139.421875 373.457031 139.773438 375.023438 140.136719 C 376.585938 140.496094 377.738281 140.878906 378.488281 141.261719 C 379.234375 141.652344 379.824219 142.179688 380.246094 142.855469 C 380.667969 143.527344 380.882813 144.359375 380.882813 145.34375 C 380.882813 146.242188 380.632813 147.085938 380.121094 147.867188 C 379.609375 148.648438 378.894531 149.230469 377.964844 149.609375 C 377.035156 149.992188 375.878906 150.183594 374.496094 150.183594 C 372.480469 150.183594 370.933594 149.726563 369.851563 148.816406 C 368.769531 147.902344 368.128906 146.574219 367.917969 144.828125 Z M 383.507813 149.898438 L 383.507813 134.25 L 386.738281 134.25 L 386.738281 149.898438 Z M 146.039063 144.746094 L 149.070313 144.433594 C 149.265625 145.484375 149.628906 146.265625 150.164063 146.757813 C 150.722656 147.25 151.476563 147.496094 152.421875 147.496094 C 153.414063 147.496094 154.164063 147.269531 154.679688 146.824219 C 155.175781 146.402344 155.429688 145.886719 155.429688 145.285156 C 155.429688 144.902344 155.324219 144.59375 155.109375 144.320313 C 154.894531 144.054688 154.527344 143.832031 153.992188 143.632813 C 153.648438 143.496094 152.808594 143.273438 151.519531 142.9375 C 149.863281 142.515625 148.703125 141.976563 148.039063 141.351563 C 147.09375 140.457031 146.621094 139.386719 146.621094 138.113281 C 146.621094 137.3125 146.832031 136.527344 147.285156 135.835938 C 147.738281 135.121094 148.359375 134.585938 149.199219 134.207031 C 150.039063 133.828125 151.046875 133.648438 152.230469 133.648438 C 154.140625 133.648438 155.601563 134.09375 156.570313 134.988281 C 157.539063 135.859375 158.050781 137.042969 158.097656 138.539063 L 154.980469 138.652344 C 154.851563 137.824219 154.570313 137.222656 154.140625 136.863281 C 153.691406 136.507813 153.046875 136.328125 152.1875 136.328125 C 151.28125 136.328125 150.574219 136.527344 150.078125 136.90625 C 149.757813 137.15625 149.585938 137.488281 149.585938 137.914063 C 149.585938 138.292969 149.738281 138.605469 150.058594 138.875 C 150.445313 139.230469 151.390625 139.585938 152.894531 139.945313 C 154.398438 140.324219 155.515625 140.707031 156.246094 141.105469 C 156.957031 141.507813 157.539063 142.046875 157.945313 142.738281 C 158.355469 143.40625 158.546875 144.253906 158.546875 145.285156 C 158.546875 146.199219 158.3125 147.046875 157.816406 147.851563 C 157.324219 148.65625 156.636719 149.238281 155.734375 149.636719 C 154.851563 150.019531 153.734375 150.21875 152.382813 150.21875 C 150.445313 150.21875 148.941406 149.75 147.910156 148.8125 C 146.859375 147.898438 146.253906 146.535156 146.039063 144.746094 Z M 35.597656 149.929688 L 35.597656 133.9375 L 40.585938 133.9375 C 42.472656 133.9375 43.699219 134.003906 44.28125 134.183594 C 45.164063 134.40625 45.894531 134.945313 46.496094 135.746094 C 47.078125 136.550781 47.375 137.578125 47.375 138.851563 C 47.375 139.835938 47.207031 140.660156 46.859375 141.332031 C 46.515625 142 46.085938 142.535156 45.574219 142.917969 C 45.03125 143.296875 44.496094 143.539063 43.957031 143.671875 C 43.207031 143.808594 42.132813 143.898438 40.734375 143.898438 L 38.714844 143.898438 L 38.714844 149.929688 Z M 54.0625 149.929688 L 54.0625 133.9375 L 60.621094 133.9375 C 62.253906 133.9375 63.457031 134.074219 64.1875 134.363281 C 64.9375 134.652344 65.542969 135.164063 65.992188 135.902344 C 66.445313 136.640625 66.660156 137.46875 66.660156 138.425781 C 66.660156 139.613281 66.316406 140.617188 65.648438 141.398438 C 64.960938 142.179688 63.953125 142.667969 62.617188 142.871094 C 63.285156 143.273438 63.84375 143.71875 64.273438 144.210938 C 64.703125 144.703125 65.285156 145.574219 66.035156 146.800781 L 67.90625 149.929688 L 64.1875 149.929688 L 61.972656 146.445313 C 61.15625 145.191406 60.621094 144.414063 60.320313 144.101563 C 60.019531 143.765625 59.71875 143.539063 59.394531 143.429688 C 59.050781 143.320313 58.535156 143.25 57.804688 143.25 L 57.179688 143.25 L 57.179688 149.929688 Z M 73.074219 142.019531 C 73.074219 140.394531 73.308594 139.03125 73.78125 137.914063 C 74.125 137.109375 74.597656 136.375 75.21875 135.726563 C 75.824219 135.078125 76.488281 134.585938 77.199219 134.273438 C 78.164063 133.851563 79.261719 133.648438 80.53125 133.648438 C 82.789063 133.648438 84.613281 134.382813 85.96875 135.835938 C 87.324219 137.3125 88.007813 139.34375 88.007813 141.953125 C 88.007813 144.542969 87.339844 146.558594 85.988281 148.03125 C 84.632813 149.480469 82.828125 150.21875 80.574219 150.21875 C 78.273438 150.21875 76.445313 149.480469 75.089844 148.03125 C 73.761719 146.578125 73.074219 144.59375 73.074219 142.019531 Z M 94.5625 149.929688 L 94.5625 133.9375 L 105.140625 133.9375 L 105.140625 136.640625 L 97.679688 136.640625 L 97.679688 140.4375 L 104.128906 140.4375 L 104.128906 143.140625 L 97.679688 143.140625 L 97.679688 149.929688 Z M 111.824219 149.929688 L 111.824219 133.9375 L 123.214844 133.9375 L 123.214844 136.640625 L 114.941406 136.640625 L 114.941406 140.191406 L 122.636719 140.191406 L 122.636719 142.894531 L 114.941406 142.894531 L 114.941406 147.222656 L 123.515625 147.222656 L 123.515625 149.929688 Z M 129.476563 144.746094 L 132.503906 144.433594 C 132.695313 145.484375 133.0625 146.265625 133.597656 146.757813 C 134.160156 147.25 134.914063 147.496094 135.855469 147.496094 C 136.84375 147.496094 137.597656 147.269531 138.113281 146.824219 C 138.609375 146.402344 138.863281 145.886719 138.863281 145.285156 C 138.863281 144.902344 138.757813 144.59375 138.542969 144.320313 C 138.328125 144.054688 137.960938 143.832031 137.425781 143.632813 C 137.078125 143.496094 136.242188 143.273438 134.953125 142.9375 C 133.300781 142.515625 132.136719 141.976563 131.472656 141.351563 C 130.527344 140.457031 130.054688 139.386719 130.054688 138.113281 C 130.054688 137.3125 130.269531 136.527344 130.722656 135.835938 C 131.167969 135.121094 131.796875 134.585938 132.632813 134.207031 C 133.472656 133.828125 134.480469 133.648438 135.664063 133.648438 C 137.574219 133.648438 139.039063 134.09375 140.003906 134.988281 C 140.972656 135.859375 141.484375 137.042969 141.53125 138.539063 L 138.414063 138.652344 C 138.285156 137.824219 138.007813 137.222656 137.574219 136.863281 C 137.128906 136.507813 136.480469 136.328125 135.621094 136.328125 C 134.71875 136.328125 134.007813 136.527344 133.515625 136.90625 C 133.191406 137.15625 133.019531 137.488281 133.019531 137.914063 C 133.019531 138.292969 133.171875 138.605469 133.492188 138.875 C 133.878906 139.230469 134.824219 139.585938 136.328125 139.945313 C 137.835938 140.324219 138.949219 140.707031 139.683594 141.105469 C 140.394531 141.507813 140.972656 142.046875 141.378906 142.738281 C 141.789063 143.40625 141.984375 144.253906 141.984375 145.285156 C 141.984375 146.199219 141.746094 147.046875 141.253906 147.851563 C 140.757813 148.65625 140.070313 149.238281 139.164063 149.636719 C 138.285156 150.019531 137.167969 150.21875 135.8125 150.21875 C 133.878906 150.21875 132.375 149.75 131.34375 148.8125 C 130.289063 147.898438 129.6875 146.535156 129.476563 144.746094 Z M 164.3125 149.929688 L 164.3125 133.9375 L 167.429688 133.9375 L 167.429688 149.929688 Z M 172.691406 142.019531 C 172.691406 140.394531 172.925781 139.03125 173.398438 137.914063 C 173.746094 137.109375 174.21875 136.375 174.839844 135.726563 C 175.441406 135.078125 176.109375 134.585938 176.816406 134.273438 C 177.785156 133.851563 178.878906 133.648438 180.148438 133.648438 C 182.40625 133.648438 184.234375 134.382813 185.589844 135.835938 C 186.941406 137.3125 187.628906 139.34375 187.628906 141.953125 C 187.628906 144.542969 186.964844 146.558594 185.609375 148.03125 C 184.253906 149.480469 182.449219 150.21875 180.191406 150.21875 C 177.890625 150.21875 176.066406 149.480469 174.710938 148.03125 C 173.378906 146.578125 172.691406 144.59375 172.691406 142.019531 Z M 194.183594 149.929688 L 194.183594 133.9375 L 197.191406 133.9375 L 203.535156 144.660156 L 203.535156 133.9375 L 206.414063 133.9375 L 206.414063 149.929688 L 203.296875 149.929688 L 197.0625 139.410156 L 197.0625 149.929688 Z M 227.699219 149.929688 L 224.347656 149.929688 L 223.011719 146.289063 L 216.84375 146.289063 L 215.554688 149.929688 L 212.269531 149.929688 L 218.242188 133.9375 L 221.53125 133.9375 Z M 233.574219 149.929688 L 233.574219 134.074219 L 236.6875 134.074219 L 236.6875 147.222656 L 244.40625 147.222656 L 244.40625 149.929688 Z M 385.8125 112.03125 L 344.289063 112.03125 L 344.289063 44.605469 L 384.210938 44.605469 L 384.210938 56.964844 L 359.894531 56.964844 L 359.894531 71.972656 L 382.53125 71.972656 L 382.53125 84.28125 L 359.894531 84.28125 L 359.894531 99.703125 L 385.8125 99.703125 Z M 269.179688 112.03125 L 269.179688 44.605469 L 293.714844 44.605469 C 318.296875 44.605469 330.589844 55.554688 330.589844 77.476563 C 330.589844 87.96875 327.226563 96.351563 320.523438 102.625 C 313.8125 108.898438 304.882813 112.03125 293.714844 112.03125 Z M 184.347656 42.582031 L 184.449219 42.507813 L 184.289063 42.507813 Z M 72.597656 91.488281 L 72.59375 91.503906 L 70.433594 86.800781 L 50.710938 44.128906 L 50.769531 44.101563 L 35.597656 44.101563 L 35.597656 112.097656 L 49.9375 112.097656 L 49.9375 72.601563 L 66.058594 112.097656 L 78.597656 112.097656 L 80.234375 108.007813 Z M 93.894531 44.101563 L 74.929688 86.296875 L 82.425781 102.515625 L 94.335938 72.742188 L 94.335938 112.097656 L 108.675781 112.097656 L 108.675781 44.101563 Z M 209.269531 82.8125 L 187.382813 109.851563 L 158.121094 44.101563 L 142.886719 44.101563 L 113.253906 112.097656 L 129.128906 112.097656 L 150.21875 61.621094 L 158.574219 81.03125 L 146.277344 81.03125 L 140.882813 94.316406 L 164.269531 94.316406 L 171.898438 112.097656 L 204.929688 112.097656 L 218.632813 94.425781 Z M 237.105469 72.261719 L 259.824219 44.101563 L 240.472656 44.101563 L 227.714844 60.621094 Z M 280.40625 160.183594 L 299.605469 160.183594 C 266.09375 118.507813 232.695313 76.824219 199.042969 35.273438 L 179.023438 35.273438 L 179.085938 35.351563 L 179.183594 35.273438 L 279.746094 160.183594 L 280.40625 160.183594 "/>
</g>
</svg>
